<?xml version="1.0" encoding="utf-8"?>
<!-- Generator: Adobe Illustrator 16.0.0, SVG Export Plug-In . SVG Version: 6.00 Build 0)  -->
<!DOCTYPE svg PUBLIC "-//W3C//DTD SVG 1.1//EN" "http://www.w3.org/Graphics/SVG/1.1/DTD/svg11.dtd">
<svg version="1.1" id="Capa_1" xmlns="http://www.w3.org/2000/svg" xmlns:xlink="http://www.w3.org/1999/xlink" x="0px" y="0px"
	 width="425.767px" height="425.979px" viewBox="0 0 425.767 425.979" enable-background="new 0 0 425.767 425.979"
	 xml:space="preserve">
<path fill-rule="evenodd" clip-rule="evenodd" fill="#6C4C75" d="M420.421,213.561c0.816,111.215-91.4,207.668-208.556,206.91
	C95.195,419.716,5.371,323.003,5.671,212.462C5.974,100.766,97.868,4.769,214.459,5.507
	C330.925,6.245,421.822,102.891,420.421,213.561z M213.166,352.21c76.349,0.001,138.998-62.625,139.041-138.99
	c0.043-77.011-62.392-139.379-139.531-139.38c-75.965-0.002-138.469,62.644-138.55,138.862
	C74.045,289.46,136.584,352.21,213.166,352.21z"/>
<path fill="#FFAA9A" d="M214.247,56.424c0,0.659-0.534,1.193-1.193,1.193l0,0c-0.659,0-1.193-0.534-1.193-1.193V21.724
	c0-0.659,0.534-1.193,1.193-1.193l0,0c0.659,0,1.193,0.534,1.193,1.193V56.424z"/>
<path fill="#FFAA9A" d="M214.247,403.894c0,0.66-0.534,1.193-1.193,1.193l0,0c-0.659,0-1.193-0.533-1.193-1.193v-34.7
	c0-0.659,0.534-1.193,1.193-1.193l0,0c0.659,0,1.193,0.534,1.193,1.193V403.894z"/>
<path fill="#FFAA9A" d="M56.669,211.616c0.659,0,1.193,0.534,1.193,1.193l0,0c0,0.659-0.534,1.193-1.193,1.193H21.968
	c-0.659,0-1.193-0.534-1.193-1.193l0,0c0-0.659,0.534-1.193,1.193-1.193H56.669z"/>
<path fill="#FFAA9A" d="M404.139,211.616c0.66,0,1.193,0.534,1.193,1.193l0,0c0,0.659-0.533,1.193-1.193,1.193h-34.701
	c-0.658,0-1.193-0.534-1.193-1.193l0,0c0-0.659,0.535-1.193,1.193-1.193H404.139z"/>
<path fill="#FFAA9A" d="M127.289,343.583c0.357-0.555,1.096-0.714,1.65-0.356l0,0c0.554,0.357,0.713,1.096,0.356,1.649
	l-18.808,29.162c-0.357,0.554-1.096,0.713-1.65,0.355l0,0c-0.554-0.357-0.713-1.096-0.356-1.649L127.289,343.583z"/>
<path fill="#FFAA9A" d="M315.623,51.58c0.357-0.555,1.096-0.713,1.649-0.356l0,0c0.554,0.357,0.714,1.095,0.356,1.649L298.82,82.035
	c-0.356,0.553-1.096,0.714-1.649,0.356l0,0c-0.555-0.357-0.713-1.097-0.356-1.65L315.623,51.58z"/>
<path fill="#FFAA9A" d="M131.726,79.229c0.348,0.561,0.175,1.296-0.386,1.643l0,0c-0.561,0.347-1.295,0.174-1.643-0.386
	l-18.272-29.501c-0.347-0.561-0.173-1.296,0.387-1.643l0,0c0.561-0.347,1.296-0.174,1.643,0.386L131.726,79.229z"/>
<path fill="#FFAA9A" d="M314.682,374.632c0.348,0.561,0.174,1.296-0.387,1.643l0,0c-0.56,0.347-1.295,0.175-1.643-0.386
	l-18.271-29.501c-0.347-0.56-0.175-1.297,0.386-1.644l0,0c0.562-0.348,1.297-0.173,1.644,0.387L314.682,374.632z"/>
<path fill="#FFAA9A" d="M75.87,287.897c0.577-0.321,1.303-0.114,1.624,0.461l0,0c0.321,0.576,0.114,1.303-0.461,1.623
	l-30.311,16.895c-0.576,0.32-1.303,0.113-1.623-0.462l0,0c-0.321-0.577-0.114-1.303,0.461-1.623L75.87,287.897z"/>
<path fill="#FFAA9A" d="M379.386,118.742c0.576-0.321,1.303-0.114,1.623,0.462l0,0c0.321,0.575,0.115,1.302-0.461,1.623
	l-30.311,16.893c-0.575,0.321-1.304,0.115-1.624-0.461l0,0c-0.322-0.577-0.113-1.303,0.462-1.624L379.386,118.742z"/>
<path fill="#FFAA9A" d="M76.395,136.768c0.58,0.317,0.792,1.042,0.476,1.62l0,0c-0.316,0.579-1.041,0.791-1.619,0.475L44.8,122.222
	c-0.578-0.316-0.791-1.042-0.475-1.619l0,0c0.317-0.579,1.042-0.791,1.619-0.475L76.395,136.768z"/>
<path fill="#FFAA9A" d="M381.307,303.395c0.579,0.316,0.791,1.041,0.475,1.619l0,0c-0.315,0.578-1.04,0.792-1.619,0.476
	l-30.45-16.64c-0.578-0.316-0.793-1.042-0.476-1.62l0,0c0.315-0.58,1.042-0.791,1.62-0.475L381.307,303.395z"/>
</svg>
